<?xml version="1.0" ?><svg height="20" version="1.1" viewBox="0 0 20 20" width="20" xmlns="http://www.w3.org/2000/svg"><g id="layer1"><path d="M 1 6 L 0 7 L 0 14 L 1 15 L 19 15 L 20 14 L 20 7 L 19 6 L 9.5 6 L 10.5 7 L 18.5 7 L 19 7.5 L 19 13.5 L 18.5 14 L 1.5 14 L 1 13.5 L 1 7.5 L 1.5 7 L 2.5 7 L 3.5 6 L 1 6 z M 6.5 6 C 4.5729257 6 3 7.5729257 3 9.5 C 3 11.427074 4.5729257 13 6.5 13 C 8.4270743 13 10 11.427074 10 9.5 C 10 7.5729257 8.4270743 6 6.5 6 z M 6.5 7 C 7.8866342 7 9 8.1133658 9 9.5 C 9 10.886634 7.8866342 12 6.5 12 C 5.1133658 12 4 10.886634 4 9.5 C 4 8.1133658 5.1133658 7 6.5 7 z M 13 8 L 13 9 L 17 9 L 17 8 L 13 8 z M 13 10 L 13 11 L 17 11 L 17 10 L 13 10 z M 13 12 L 13 13 L 17 13 L 17 12 L 13 12 z " style="fill:#222222; fill-opacity:1; stroke:none; stroke-width:0px;"/></g></svg>