<?xml version="1.0" ?><svg viewBox="0 0 512 512" xmlns="http://www.w3.org/2000/svg"><g id="Music"><path d="M160.8954,164.6677a19.2366,19.2366,0,0,0,19.2305-18.9722h.0087v-.1742c0-.0331.0049-.0648.0049-.0979s-.0046-.0648-.0049-.0979v-49.5l22.0635-13.2031a8,8,0,1,0-8.2148-13.73L168.0272,84.425a7.9989,7.9989,0,0,0-3.8926,6.8648v35.1828a19.2356,19.2356,0,1,0-3.2392,38.1951Z"/><circle cx="199.1591" cy="316.6676" r="27.1999"/><path d="M369.5839,179.7746,372.76,182.95a7.9994,7.9994,0,0,0,11.919-.68l40.0937-50.4521a8,8,0,0,0-.6054-10.6338L394.6434,91.66a8,8,0,0,0-10.6347-.6065l-50.4522,40.0942a8,8,0,0,0-.68,11.92l3.1748,3.1748-86.1689,76.6279c-23.4766-8.5537-48.7109-3.6269-65.4932,13.1567a57.904,57.904,0,0,0-10.9951,15.3306c-4.2519,8.6079-12.9375,13.979-23.2314,14.3672a81.7514,81.7514,0,0,0-54.3438,22.93c-33.5928,32.8667-31.9531,89.32,3.6543,125.8442,18.2715,18.7422,43.13,29.5825,68.2012,29.7422.1914.001.38.002.5713.002,22.3789,0,43.0693-8.3741,58.3095-23.6138a81.6531,81.6531,0,0,0,23.57-55.6948,25.2981,25.2981,0,0,1,14.1835-22.4248,57.9013,57.9013,0,0,0,15.9952-11.585c16.2851-16.69,21.0029-41.7022,12.6093-64.9341Zm-6.32-16.9707-85.6,96.2588a8.0013,8.0013,0,0,0-1.3252,8.58c8.2735,18.5161,5.335,38.97-7.4853,52.1089a41.94,41.94,0,0,1-11.5869,8.3916,41.5833,41.5833,0,0,0-23.1328,36.3213,65.7184,65.7184,0,0,1-18.8926,44.852c-12.32,12.3208-29.2139,19.061-47.4649,18.9253-20.8212-.1323-41.541-9.2119-56.8457-24.9111-29.46-30.2183-31.22-76.5308-3.9218-103.2388a65.7906,65.7906,0,0,1,43.7568-18.3784c16.0146-.6035,30.1826-9.52,36.9746-23.27a41.9079,41.9079,0,0,1,7.9629-11.1021,43.7157,43.7157,0,0,1,31.2188-12.5776,51.8591,51.8591,0,0,1,21.2753,4.6831,7.9988,7.9988,0,0,0,8.6026-1.3159l96.2236-85.5689,4.2793-3.93a7.0467,7.0467,0,0,1,9.9426,9.954Z"/><path d="M154.4969,333.6149a8,8,0,0,0-11.3144,11.3135l27.7148,27.7149A8,8,0,0,0,182.2118,361.33Z"/><path d="M432.3417,288.7805H384.23a8,8,0,0,0-8,8v8.0012l-.0019-.0012v26.3081a18.103,18.103,0,0,0-2.7717-.2363c-10.3672,0-18.7715,8.749-18.7715,19.5412s8.4043,19.541,18.7715,19.541,18.7717-8.7488,18.7717-19.541V327.0256l.0019,0V304.7805h32.1114v26.3081a18.1039,18.1039,0,0,0-2.7716-.2363c-10.3673,0-18.7716,8.749-18.7716,19.5412s8.4043,19.541,18.7716,19.541,18.7716-8.7488,18.7716-19.541v-53.613A8,8,0,0,0,432.3417,288.7805Z"/></g></svg>